<svg width="22" height="27" viewBox="0 0 22 27" fill="none" xmlns="http://www.w3.org/2000/svg">
<g filter="url(#filter0_d_50_61)">
<path d="M8.75098 14.1259C8.58522 14.1259 8.42625 14.1918 8.30904 14.309C8.19182 14.4262 8.12598 14.5852 8.12598 14.7509C8.12598 14.9167 8.19182 15.0757 8.30904 15.1929C8.42625 15.3101 8.58522 15.3759 8.75098 15.3759V14.1259ZM12.9176 15.3759C13.0834 15.3759 13.2424 15.3101 13.3596 15.1929C13.4768 15.0757 13.5426 14.9167 13.5426 14.7509C13.5426 14.5852 13.4768 14.4262 13.3596 14.309C13.2424 14.1918 13.0834 14.1259 12.9176 14.1259V15.3759ZM10.2093 17.6676C10.2093 17.8334 10.2752 17.9923 10.3924 18.1095C10.5096 18.2268 10.6685 18.2926 10.8343 18.2926C11.0001 18.2926 11.159 18.2268 11.2763 18.1095C11.3935 17.9923 11.4593 17.8334 11.4593 17.6676H10.2093ZM10.2093 12.6676V14.7509H11.4593V12.6676H10.2093ZM10.8343 14.1259H8.75098V15.3759H10.8343V14.1259ZM12.9176 14.1259H10.8343V15.3759H12.9176V14.1259ZM10.2093 14.7509V17.6676H11.4593V14.7509H10.2093Z" fill="black"/>
<path d="M7.91764 1.78098C9.14331 1.07365 10.5843 0.835987 11.9722 1.11226C13.3601 1.38854 14.6002 2.15991 15.4616 3.28268C16.3229 4.40545 16.7468 5.80306 16.6542 7.21514C16.5616 8.62723 15.9588 9.9575 14.9581 10.9581C13.9575 11.9588 12.6272 12.5616 11.2151 12.6542C9.80306 12.7468 8.40545 12.3229 7.28268 11.4616C6.15991 10.6002 5.38854 9.36008 5.11226 7.97219C4.83599 6.5843 5.07365 5.14331 5.78098 3.91764" stroke="black" strokeWidth="1.25" strokeLinecap="round"/>
</g>
<defs>
<filter id="filter0_d_50_61" x="0.375" y="0.375" width="20.9167" height="25.9176" filterUnits="userSpaceOnUse" colorInterpolationFilters="sRGB">
<feFlood floodOpacity="0" result="BackgroundImageFix"/>
<feColorMatrix in="SourceAlpha" type="matrix" values="0 0 0 0 0 0 0 0 0 0 0 0 0 0 0 0 0 0 127 0" result="hardAlpha"/>
<feOffset dy="4"/>
<feGaussianBlur stdDeviation="2"/>
<feComposite in2="hardAlpha" operator="out"/>
<feColorMatrix type="matrix" values="0 0 0 0 0 0 0 0 0 0 0 0 0 0 0 0 0 0 0.25 0"/>
<feBlend mode="normal" in2="BackgroundImageFix" result="effect1_dropShadow_50_61"/>
<feBlend mode="normal" in="SourceGraphic" in2="effect1_dropShadow_50_61" result="shape"/>
</filter>
</defs>
</svg>
