<svg width="18" height="18" viewBox="0 0 18 18" fill="none" xmlns="http://www.w3.org/2000/svg">
<path d="M7.33339 10.6667L16.5001 1.5M7.33339 10.6667L10.2501 16.5C10.2866 16.5798 10.3453 16.6474 10.4192 16.6948C10.493 16.7422 10.579 16.7674 10.6667 16.7674C10.7545 16.7674 10.8404 16.7422 10.9143 16.6948C10.9881 16.6474 11.0468 16.5798 11.0834 16.5L16.5001 1.5M7.33339 10.6667L1.50006 7.75C1.42027 7.71344 1.35266 7.65474 1.30526 7.58088C1.25786 7.50701 1.23267 7.4211 1.23267 7.33333C1.23267 7.24557 1.25786 7.15965 1.30526 7.08579C1.35266 7.01193 1.42027 6.95323 1.50006 6.91667L16.5001 1.5" stroke="white" stroke-width="1.66667" stroke-linecap="round" stroke-linejoin="round"/>
</svg>
